<mxfile host="Electron" agent="Mozilla/5.0 (X11; Linux x86_64) AppleWebKit/537.36 (KHTML, like Gecko) draw.io/24.7.8 Chrome/128.0.6613.36 Electron/32.0.1 Safari/537.36" version="24.7.8" pages="3">
  <diagram name="commit-pr-workflow" id="RIEir0YwCM2E6ZDXMTHm">
    <mxGraphModel dx="1247" dy="743" grid="1" gridSize="10" guides="1" tooltips="1" connect="1" arrows="1" fold="1" page="1" pageScale="1" pageWidth="1169" pageHeight="827" math="0" shadow="0">
      <root>
        <mxCell id="0" />
        <mxCell id="1" parent="0" />
        <mxCell id="OTzLgmM6ZMwSwqvLLWqu-3" value="fork" style="edgeStyle=orthogonalEdgeStyle;rounded=1;orthogonalLoop=1;jettySize=auto;html=1;strokeWidth=2;verticalAlign=bottom;fontSize=14;dashed=1;" parent="1" source="OTzLgmM6ZMwSwqvLLWqu-1" target="OTzLgmM6ZMwSwqvLLWqu-2" edge="1">
          <mxGeometry relative="1" as="geometry" />
        </mxCell>
        <mxCell id="OTzLgmM6ZMwSwqvLLWqu-7" value="branch" style="edgeStyle=orthogonalEdgeStyle;shape=connector;rounded=1;orthogonalLoop=1;jettySize=auto;html=1;labelBackgroundColor=default;strokeColor=default;strokeWidth=2;align=center;verticalAlign=bottom;fontFamily=Helvetica;fontSize=14;fontColor=default;endArrow=diamondThin;endFill=1;" parent="1" source="OTzLgmM6ZMwSwqvLLWqu-1" target="OTzLgmM6ZMwSwqvLLWqu-4" edge="1">
          <mxGeometry x="0.5" relative="1" as="geometry">
            <mxPoint as="offset" />
          </mxGeometry>
        </mxCell>
        <mxCell id="OTzLgmM6ZMwSwqvLLWqu-13" value="git clone" style="edgeStyle=orthogonalEdgeStyle;shape=connector;rounded=1;orthogonalLoop=1;jettySize=auto;html=1;labelBackgroundColor=default;strokeColor=default;strokeWidth=2;align=center;verticalAlign=bottom;fontFamily=Helvetica;fontSize=14;fontColor=default;endArrow=classic;" parent="1" source="OTzLgmM6ZMwSwqvLLWqu-1" target="OTzLgmM6ZMwSwqvLLWqu-10" edge="1">
          <mxGeometry relative="1" as="geometry">
            <Array as="points">
              <mxPoint x="140" y="200" />
              <mxPoint x="140" y="100" />
              <mxPoint x="560" y="100" />
              <mxPoint x="560" y="179" />
            </Array>
          </mxGeometry>
        </mxCell>
        <mxCell id="OTzLgmM6ZMwSwqvLLWqu-1" value="Remote upstream repo,&lt;br&gt;e.g. &lt;b&gt;github:upstream/my-repo&lt;/b&gt;" style="verticalLabelPosition=top;html=1;verticalAlign=bottom;align=center;strokeColor=none;fillColor=#00BEF2;shape=mxgraph.azure.git_repository;fontSize=14;labelPosition=center;" parent="1" vertex="1">
          <mxGeometry x="210" y="160" width="80" height="80" as="geometry" />
        </mxCell>
        <mxCell id="OTzLgmM6ZMwSwqvLLWqu-2" value="Remote copy&amp;nbsp;of repo,&lt;br&gt;e.g.&lt;b style=&quot;border-color: var(--border-color);&quot;&gt;github:&lt;/b&gt;&lt;b&gt;jdoe/my-repo&lt;/b&gt;" style="verticalLabelPosition=top;html=1;verticalAlign=bottom;align=center;strokeColor=none;fillColor=#00BEF2;shape=mxgraph.azure.git_repository;fontSize=14;labelPosition=center;" parent="1" vertex="1">
          <mxGeometry x="410" y="160" width="80" height="80" as="geometry" />
        </mxCell>
        <mxCell id="OTzLgmM6ZMwSwqvLLWqu-4" value="&lt;font style=&quot;font-size: 14px;&quot;&gt;Latest stable,&lt;br&gt;e.g. &lt;b&gt;devel&lt;/b&gt;&lt;br&gt;&lt;/font&gt;" style="image;aspect=fixed;html=1;points=[];align=center;fontSize=12;image=img/lib/azure2/general/Branch.svg;" parent="1" vertex="1">
          <mxGeometry x="210" y="280" width="80" height="80" as="geometry" />
        </mxCell>
        <mxCell id="OTzLgmM6ZMwSwqvLLWqu-9" value="based on" style="edgeStyle=orthogonalEdgeStyle;shape=connector;rounded=1;orthogonalLoop=1;jettySize=auto;html=1;labelBackgroundColor=default;strokeColor=default;strokeWidth=2;align=center;verticalAlign=bottom;fontFamily=Helvetica;fontSize=14;fontColor=default;endArrow=classic;dashed=1;endFill=1;startArrow=none;startFill=0;dashPattern=1 1;" parent="1" source="OTzLgmM6ZMwSwqvLLWqu-5" target="OTzLgmM6ZMwSwqvLLWqu-4" edge="1">
          <mxGeometry relative="1" as="geometry" />
        </mxCell>
        <mxCell id="OTzLgmM6ZMwSwqvLLWqu-20" value="pull/merge&amp;nbsp;request" style="edgeStyle=orthogonalEdgeStyle;shape=connector;rounded=1;orthogonalLoop=1;jettySize=auto;html=1;labelBackgroundColor=default;strokeColor=default;strokeWidth=2;align=center;verticalAlign=top;fontFamily=Helvetica;fontSize=14;fontColor=default;endArrow=classic;dashed=1;" parent="1" source="OTzLgmM6ZMwSwqvLLWqu-5" target="OTzLgmM6ZMwSwqvLLWqu-4" edge="1">
          <mxGeometry relative="1" as="geometry">
            <Array as="points">
              <mxPoint x="560" y="340" />
              <mxPoint x="560" y="430" />
              <mxPoint x="140" y="430" />
              <mxPoint x="140" y="320" />
            </Array>
          </mxGeometry>
        </mxCell>
        <mxCell id="OTzLgmM6ZMwSwqvLLWqu-5" value="&lt;span style=&quot;font-size: 14px;&quot;&gt;branch containing&lt;br&gt;features, bug fixes,&lt;br&gt;e.g. &lt;b&gt;feature/magic&lt;/b&gt;&lt;br&gt;&lt;/span&gt;" style="image;aspect=fixed;html=1;points=[];align=center;fontSize=12;image=img/lib/azure2/general/Branch.svg;" parent="1" vertex="1">
          <mxGeometry x="410" y="280" width="80" height="80" as="geometry" />
        </mxCell>
        <mxCell id="OTzLgmM6ZMwSwqvLLWqu-8" value="branch" style="edgeStyle=orthogonalEdgeStyle;shape=connector;rounded=1;orthogonalLoop=1;jettySize=auto;html=1;labelBackgroundColor=default;strokeColor=default;strokeWidth=2;align=center;verticalAlign=bottom;fontFamily=Helvetica;fontSize=14;fontColor=default;endArrow=diamondThin;endFill=1;" parent="1" source="OTzLgmM6ZMwSwqvLLWqu-2" target="OTzLgmM6ZMwSwqvLLWqu-5" edge="1">
          <mxGeometry x="0.5" relative="1" as="geometry">
            <mxPoint x="280" y="250" as="sourcePoint" />
            <mxPoint x="280" y="310" as="targetPoint" />
            <mxPoint as="offset" />
          </mxGeometry>
        </mxCell>
        <mxCell id="OTzLgmM6ZMwSwqvLLWqu-14" value="git remote add" style="edgeStyle=orthogonalEdgeStyle;shape=connector;rounded=1;orthogonalLoop=1;jettySize=auto;html=1;labelBackgroundColor=default;strokeColor=default;strokeWidth=2;align=center;verticalAlign=top;fontFamily=Helvetica;fontSize=14;fontColor=default;endArrow=diamond;endFill=1;" parent="1" source="OTzLgmM6ZMwSwqvLLWqu-10" target="OTzLgmM6ZMwSwqvLLWqu-2" edge="1">
          <mxGeometry relative="1" as="geometry" />
        </mxCell>
        <mxCell id="OTzLgmM6ZMwSwqvLLWqu-10" value="Local copy&amp;nbsp;of repo,&lt;br&gt;e.g. &lt;b&gt;local:~/my-repo&lt;/b&gt;" style="verticalLabelPosition=top;html=1;verticalAlign=bottom;align=center;strokeColor=none;fillColor=#00BEF2;shape=mxgraph.azure.git_repository;fontSize=14;labelPosition=center;" parent="1" vertex="1">
          <mxGeometry x="620" y="160" width="80" height="80" as="geometry" />
        </mxCell>
        <mxCell id="OTzLgmM6ZMwSwqvLLWqu-12" value="branch" style="edgeStyle=orthogonalEdgeStyle;shape=connector;rounded=1;orthogonalLoop=1;jettySize=auto;html=1;labelBackgroundColor=default;strokeColor=default;strokeWidth=2;align=center;verticalAlign=bottom;fontFamily=Helvetica;fontSize=14;fontColor=default;endArrow=diamondThin;endFill=1;" parent="1" source="OTzLgmM6ZMwSwqvLLWqu-10" target="OTzLgmM6ZMwSwqvLLWqu-15" edge="1">
          <mxGeometry x="0.5" relative="1" as="geometry">
            <mxPoint x="450" y="250" as="sourcePoint" />
            <mxPoint x="660" y="300" as="targetPoint" />
            <mxPoint as="offset" />
          </mxGeometry>
        </mxCell>
        <mxCell id="OTzLgmM6ZMwSwqvLLWqu-19" value="git push" style="edgeStyle=orthogonalEdgeStyle;shape=connector;rounded=1;orthogonalLoop=1;jettySize=auto;html=1;labelBackgroundColor=default;strokeColor=default;strokeWidth=2;align=center;verticalAlign=bottom;fontFamily=Helvetica;fontSize=14;fontColor=default;endArrow=classic;" parent="1" source="OTzLgmM6ZMwSwqvLLWqu-15" target="OTzLgmM6ZMwSwqvLLWqu-5" edge="1">
          <mxGeometry relative="1" as="geometry" />
        </mxCell>
        <mxCell id="OTzLgmM6ZMwSwqvLLWqu-15" value="&lt;span style=&quot;font-size: 14px;&quot;&gt;&lt;b&gt;feature/magic&lt;/b&gt;&lt;br&gt;&lt;/span&gt;" style="image;aspect=fixed;html=1;points=[];align=center;fontSize=12;image=img/lib/azure2/general/Branch.svg;" parent="1" vertex="1">
          <mxGeometry x="620" y="280" width="80" height="80" as="geometry" />
        </mxCell>
        <mxCell id="OTzLgmM6ZMwSwqvLLWqu-18" value="git commit" style="edgeStyle=orthogonalEdgeStyle;shape=connector;rounded=1;orthogonalLoop=1;jettySize=auto;html=1;labelBackgroundColor=default;strokeColor=default;strokeWidth=2;align=center;verticalAlign=bottom;fontFamily=Helvetica;fontSize=14;fontColor=default;endArrow=classic;" parent="1" source="OTzLgmM6ZMwSwqvLLWqu-16" target="OTzLgmM6ZMwSwqvLLWqu-15" edge="1">
          <mxGeometry relative="1" as="geometry" />
        </mxCell>
        <mxCell id="OTzLgmM6ZMwSwqvLLWqu-16" value="development" style="pointerEvents=1;shadow=0;dashed=0;html=1;strokeColor=none;fillColor=#4495D1;labelPosition=center;verticalLabelPosition=bottom;verticalAlign=top;align=center;outlineConnect=0;shape=mxgraph.veeam.laptop;fontFamily=Helvetica;fontSize=14;fontColor=default;" parent="1" vertex="1">
          <mxGeometry x="790" y="295" width="70" height="50" as="geometry" />
        </mxCell>
        <mxCell id="GNqN_AOGdThgsC4rCxyu-1" value="git checkout" style="edgeStyle=orthogonalEdgeStyle;shape=connector;rounded=1;orthogonalLoop=1;jettySize=auto;html=1;labelBackgroundColor=default;strokeColor=default;strokeWidth=2;align=center;verticalAlign=bottom;fontFamily=Helvetica;fontSize=14;fontColor=default;endArrow=classic;" edge="1" parent="1" source="OTzLgmM6ZMwSwqvLLWqu-10" target="OTzLgmM6ZMwSwqvLLWqu-15">
          <mxGeometry relative="1" as="geometry">
            <Array as="points">
              <mxPoint x="750" y="196" />
              <mxPoint x="750" y="290" />
            </Array>
            <mxPoint x="220" y="210" as="sourcePoint" />
            <mxPoint x="630" y="189" as="targetPoint" />
          </mxGeometry>
        </mxCell>
      </root>
    </mxGraphModel>
  </diagram>
  <diagram id="5y6E1uFZ4GyezLJxUJSu" name="resolve-merge-conflicts">
    <mxGraphModel dx="1434" dy="854" grid="1" gridSize="10" guides="1" tooltips="1" connect="1" arrows="1" fold="1" page="1" pageScale="1" pageWidth="1169" pageHeight="827" math="0" shadow="0">
      <root>
        <mxCell id="0" />
        <mxCell id="1" parent="0" />
        <mxCell id="O7pPYuAVBgybFvVrZx3b-2" value="branch" style="edgeStyle=orthogonalEdgeStyle;shape=connector;rounded=1;orthogonalLoop=1;jettySize=auto;html=1;labelBackgroundColor=default;strokeColor=default;strokeWidth=2;align=center;verticalAlign=bottom;fontFamily=Helvetica;fontSize=14;fontColor=default;endArrow=diamondThin;endFill=1;" edge="1" parent="1" source="O7pPYuAVBgybFvVrZx3b-4" target="O7pPYuAVBgybFvVrZx3b-6">
          <mxGeometry x="0.5" relative="1" as="geometry">
            <mxPoint as="offset" />
          </mxGeometry>
        </mxCell>
        <mxCell id="O7pPYuAVBgybFvVrZx3b-4" value="&lt;b&gt;github:upstream/my-repo&lt;/b&gt;" style="verticalLabelPosition=top;html=1;verticalAlign=bottom;align=center;strokeColor=none;fillColor=#00BEF2;shape=mxgraph.azure.git_repository;fontSize=14;labelPosition=center;" vertex="1" parent="1">
          <mxGeometry x="340" y="160" width="80" height="80" as="geometry" />
        </mxCell>
        <mxCell id="O7pPYuAVBgybFvVrZx3b-5" value="&lt;b style=&quot;border-color: var(--border-color);&quot;&gt;github:&lt;/b&gt;&lt;b&gt;jdoe/my-repo&lt;/b&gt;" style="verticalLabelPosition=top;html=1;verticalAlign=bottom;align=center;strokeColor=none;fillColor=#00BEF2;shape=mxgraph.azure.git_repository;fontSize=14;labelPosition=center;" vertex="1" parent="1">
          <mxGeometry x="520" y="160" width="80" height="80" as="geometry" />
        </mxCell>
        <mxCell id="O7pPYuAVBgybFvVrZx3b-6" value="&lt;font style=&quot;font-size: 14px;&quot;&gt;&lt;b&gt;devel&lt;/b&gt;&lt;br&gt;&lt;/font&gt;" style="image;aspect=fixed;html=1;points=[];align=center;fontSize=12;image=img/lib/azure2/general/Branch.svg;" vertex="1" parent="1">
          <mxGeometry x="340" y="280" width="80" height="80" as="geometry" />
        </mxCell>
        <mxCell id="O7pPYuAVBgybFvVrZx3b-8" value="PR rejected" style="edgeStyle=orthogonalEdgeStyle;shape=connector;rounded=1;orthogonalLoop=1;jettySize=auto;html=1;labelBackgroundColor=default;strokeColor=#FF0000;strokeWidth=2;align=center;verticalAlign=bottom;fontFamily=Helvetica;fontSize=14;fontColor=#FF0000;endArrow=cross;dashed=1;endFill=0;" edge="1" parent="1" source="O7pPYuAVBgybFvVrZx3b-9" target="O7pPYuAVBgybFvVrZx3b-6">
          <mxGeometry relative="1" as="geometry" />
        </mxCell>
        <mxCell id="O7pPYuAVBgybFvVrZx3b-9" value="&lt;span style=&quot;font-size: 14px;&quot;&gt;&lt;b&gt;feature/magic&lt;/b&gt;&lt;br&gt;&lt;/span&gt;" style="image;aspect=fixed;html=1;points=[];align=center;fontSize=12;image=img/lib/azure2/general/Branch.svg;" vertex="1" parent="1">
          <mxGeometry x="520" y="280" width="80" height="80" as="geometry" />
        </mxCell>
        <mxCell id="O7pPYuAVBgybFvVrZx3b-10" value="branch" style="edgeStyle=orthogonalEdgeStyle;shape=connector;rounded=1;orthogonalLoop=1;jettySize=auto;html=1;labelBackgroundColor=default;strokeColor=default;strokeWidth=2;align=center;verticalAlign=bottom;fontFamily=Helvetica;fontSize=14;fontColor=default;endArrow=diamondThin;endFill=1;" edge="1" parent="1" source="O7pPYuAVBgybFvVrZx3b-5" target="O7pPYuAVBgybFvVrZx3b-9">
          <mxGeometry x="0.5" relative="1" as="geometry">
            <mxPoint x="390" y="250" as="sourcePoint" />
            <mxPoint x="390" y="310" as="targetPoint" />
            <mxPoint as="offset" />
          </mxGeometry>
        </mxCell>
        <mxCell id="O7pPYuAVBgybFvVrZx3b-12" value="&lt;b&gt;local:~/my-repo&lt;/b&gt;" style="verticalLabelPosition=top;html=1;verticalAlign=bottom;align=center;strokeColor=none;fillColor=#00BEF2;shape=mxgraph.azure.git_repository;fontSize=14;labelPosition=center;" vertex="1" parent="1">
          <mxGeometry x="700" y="160" width="80" height="80" as="geometry" />
        </mxCell>
        <mxCell id="O7pPYuAVBgybFvVrZx3b-13" value="branch" style="edgeStyle=orthogonalEdgeStyle;shape=connector;rounded=1;orthogonalLoop=1;jettySize=auto;html=1;labelBackgroundColor=default;strokeColor=default;strokeWidth=2;align=center;verticalAlign=bottom;fontFamily=Helvetica;fontSize=14;fontColor=default;endArrow=diamondThin;endFill=1;" edge="1" parent="1" source="O7pPYuAVBgybFvVrZx3b-12" target="O7pPYuAVBgybFvVrZx3b-15">
          <mxGeometry x="0.5" relative="1" as="geometry">
            <mxPoint x="530" y="250" as="sourcePoint" />
            <mxPoint x="740" y="300" as="targetPoint" />
            <mxPoint as="offset" />
          </mxGeometry>
        </mxCell>
        <mxCell id="O7pPYuAVBgybFvVrZx3b-14" value="git push" style="edgeStyle=orthogonalEdgeStyle;shape=connector;rounded=1;orthogonalLoop=1;jettySize=auto;html=1;labelBackgroundColor=default;strokeColor=default;strokeWidth=2;align=center;verticalAlign=bottom;fontFamily=Helvetica;fontSize=14;fontColor=default;endArrow=classic;" edge="1" parent="1" source="O7pPYuAVBgybFvVrZx3b-15" target="O7pPYuAVBgybFvVrZx3b-9">
          <mxGeometry relative="1" as="geometry" />
        </mxCell>
        <mxCell id="O7pPYuAVBgybFvVrZx3b-24" value="git merge&lt;br&gt;upstream/devel" style="edgeStyle=orthogonalEdgeStyle;shape=connector;rounded=1;orthogonalLoop=1;jettySize=auto;html=1;labelBackgroundColor=default;strokeColor=default;strokeWidth=2;align=center;verticalAlign=bottom;fontFamily=Helvetica;fontSize=14;fontColor=default;endArrow=classic;" edge="1" parent="1" source="O7pPYuAVBgybFvVrZx3b-15" target="O7pPYuAVBgybFvVrZx3b-17">
          <mxGeometry x="0.2602" relative="1" as="geometry">
            <Array as="points">
              <mxPoint x="660" y="340" />
              <mxPoint x="660" y="460" />
            </Array>
            <mxPoint as="offset" />
          </mxGeometry>
        </mxCell>
        <mxCell id="O7pPYuAVBgybFvVrZx3b-15" value="&lt;span style=&quot;font-size: 14px;&quot;&gt;&lt;b&gt;feature/magic&lt;/b&gt;&lt;br&gt;&lt;/span&gt;" style="image;aspect=fixed;html=1;points=[];align=center;fontSize=12;image=img/lib/azure2/general/Branch.svg;" vertex="1" parent="1">
          <mxGeometry x="700" y="280" width="80" height="80" as="geometry" />
        </mxCell>
        <mxCell id="O7pPYuAVBgybFvVrZx3b-16" value="git commit" style="edgeStyle=orthogonalEdgeStyle;shape=connector;rounded=1;orthogonalLoop=1;jettySize=auto;html=1;labelBackgroundColor=default;strokeColor=default;strokeWidth=2;align=center;verticalAlign=bottom;fontFamily=Helvetica;fontSize=14;fontColor=default;endArrow=classic;" edge="1" parent="1" source="O7pPYuAVBgybFvVrZx3b-17" target="O7pPYuAVBgybFvVrZx3b-15">
          <mxGeometry x="-0.1958" relative="1" as="geometry">
            <Array as="points">
              <mxPoint x="820" y="465" />
              <mxPoint x="820" y="320" />
            </Array>
            <mxPoint as="offset" />
          </mxGeometry>
        </mxCell>
        <mxCell id="O7pPYuAVBgybFvVrZx3b-25" value="compares to" style="edgeStyle=orthogonalEdgeStyle;shape=connector;rounded=1;orthogonalLoop=1;jettySize=auto;html=1;labelBackgroundColor=default;strokeColor=default;strokeWidth=2;align=center;verticalAlign=bottom;fontFamily=Helvetica;fontSize=14;fontColor=default;endArrow=classic;dashed=1;dashPattern=1 1;" edge="1" parent="1" source="O7pPYuAVBgybFvVrZx3b-17" target="O7pPYuAVBgybFvVrZx3b-6">
          <mxGeometry x="-0.1142" relative="1" as="geometry">
            <Array as="points">
              <mxPoint x="460" y="480" />
              <mxPoint x="460" y="340" />
            </Array>
            <mxPoint as="offset" />
          </mxGeometry>
        </mxCell>
        <mxCell id="O7pPYuAVBgybFvVrZx3b-17" value="resolve conflicts" style="pointerEvents=1;shadow=0;dashed=0;html=1;strokeColor=none;fillColor=#4495D1;labelPosition=center;verticalLabelPosition=bottom;verticalAlign=top;align=center;outlineConnect=0;shape=mxgraph.veeam.laptop;fontFamily=Helvetica;fontSize=14;fontColor=default;" vertex="1" parent="1">
          <mxGeometry x="710" y="440" width="70" height="50" as="geometry" />
        </mxCell>
        <mxCell id="O7pPYuAVBgybFvVrZx3b-18" value="&lt;b style=&quot;border-color: var(--border-color);&quot;&gt;github:&lt;/b&gt;&lt;b&gt;dvader/my-repo&lt;/b&gt;" style="verticalLabelPosition=top;html=1;verticalAlign=bottom;align=center;strokeColor=none;fillColor=#00BEF2;shape=mxgraph.azure.git_repository;fontSize=14;labelPosition=center;" vertex="1" parent="1">
          <mxGeometry x="160" y="160" width="80" height="80" as="geometry" />
        </mxCell>
        <mxCell id="O7pPYuAVBgybFvVrZx3b-19" value="&lt;span style=&quot;font-size: 14px;&quot;&gt;&lt;b&gt;fix/empire&lt;/b&gt;&lt;br&gt;&lt;/span&gt;" style="image;aspect=fixed;html=1;points=[];align=center;fontSize=12;image=img/lib/azure2/general/Branch.svg;" vertex="1" parent="1">
          <mxGeometry x="160" y="280" width="80" height="80" as="geometry" />
        </mxCell>
        <mxCell id="O7pPYuAVBgybFvVrZx3b-20" value="branch" style="edgeStyle=orthogonalEdgeStyle;shape=connector;rounded=1;orthogonalLoop=1;jettySize=auto;html=1;labelBackgroundColor=default;strokeColor=default;strokeWidth=2;align=center;verticalAlign=bottom;fontFamily=Helvetica;fontSize=14;fontColor=default;endArrow=diamondThin;endFill=1;" edge="1" parent="1" source="O7pPYuAVBgybFvVrZx3b-18" target="O7pPYuAVBgybFvVrZx3b-19">
          <mxGeometry x="0.5" relative="1" as="geometry">
            <mxPoint x="30" y="250" as="sourcePoint" />
            <mxPoint x="30" y="310" as="targetPoint" />
            <mxPoint as="offset" />
          </mxGeometry>
        </mxCell>
        <mxCell id="O7pPYuAVBgybFvVrZx3b-21" value="PR merged" style="edgeStyle=orthogonalEdgeStyle;shape=connector;rounded=1;orthogonalLoop=1;jettySize=auto;html=1;labelBackgroundColor=default;strokeColor=default;strokeWidth=2;align=center;verticalAlign=bottom;fontFamily=Helvetica;fontSize=14;fontColor=default;endArrow=classic;dashed=1;" edge="1" parent="1" source="O7pPYuAVBgybFvVrZx3b-19" target="O7pPYuAVBgybFvVrZx3b-6">
          <mxGeometry relative="1" as="geometry">
            <mxPoint x="554" y="346" as="sourcePoint" />
            <mxPoint x="426" y="346" as="targetPoint" />
          </mxGeometry>
        </mxCell>
      </root>
    </mxGraphModel>
  </diagram>
  <diagram id="hJpQ2LGO7IEmaJTJ6q8l" name="tools">
    <mxGraphModel dx="1434" dy="854" grid="1" gridSize="10" guides="1" tooltips="1" connect="1" arrows="1" fold="1" page="1" pageScale="1" pageWidth="1169" pageHeight="827" math="0" shadow="0">
      <root>
        <mxCell id="0" />
        <mxCell id="1" parent="0" />
        <mxCell id="YTrLdcd_DZCXArlXSMA_-1" value="fork" style="edgeStyle=orthogonalEdgeStyle;rounded=1;orthogonalLoop=1;jettySize=auto;html=1;strokeWidth=2;verticalAlign=bottom;fontSize=14;dashed=1;" edge="1" parent="1" source="YTrLdcd_DZCXArlXSMA_-4" target="YTrLdcd_DZCXArlXSMA_-5">
          <mxGeometry relative="1" as="geometry" />
        </mxCell>
        <mxCell id="YTrLdcd_DZCXArlXSMA_-2" value="branch" style="edgeStyle=orthogonalEdgeStyle;shape=connector;rounded=1;orthogonalLoop=1;jettySize=auto;html=1;labelBackgroundColor=default;strokeColor=default;strokeWidth=2;align=center;verticalAlign=bottom;fontFamily=Helvetica;fontSize=14;fontColor=default;endArrow=diamondThin;endFill=1;" edge="1" parent="1" source="YTrLdcd_DZCXArlXSMA_-4" target="YTrLdcd_DZCXArlXSMA_-6">
          <mxGeometry x="0.5" relative="1" as="geometry">
            <mxPoint as="offset" />
          </mxGeometry>
        </mxCell>
        <mxCell id="YTrLdcd_DZCXArlXSMA_-4" value="&lt;b&gt;github:upstream/my-repo&lt;/b&gt;" style="verticalLabelPosition=top;html=1;verticalAlign=bottom;align=center;strokeColor=none;fillColor=#00BEF2;shape=mxgraph.azure.git_repository;fontSize=14;labelPosition=center;" vertex="1" parent="1">
          <mxGeometry x="210" y="160" width="80" height="80" as="geometry" />
        </mxCell>
        <mxCell id="YTrLdcd_DZCXArlXSMA_-5" value="&lt;b style=&quot;border-color: var(--border-color);&quot;&gt;github:&lt;/b&gt;&lt;b&gt;jdoe/my-repo&lt;/b&gt;" style="verticalLabelPosition=top;html=1;verticalAlign=bottom;align=center;strokeColor=none;fillColor=#00BEF2;shape=mxgraph.azure.git_repository;fontSize=14;labelPosition=center;" vertex="1" parent="1">
          <mxGeometry x="410" y="160" width="80" height="80" as="geometry" />
        </mxCell>
        <mxCell id="YTrLdcd_DZCXArlXSMA_-6" value="&lt;font style=&quot;font-size: 14px;&quot;&gt;&lt;b&gt;devel&lt;/b&gt;&lt;br&gt;&lt;/font&gt;" style="image;aspect=fixed;html=1;points=[];align=center;fontSize=12;image=img/lib/azure2/general/Branch.svg;" vertex="1" parent="1">
          <mxGeometry x="210" y="280" width="80" height="80" as="geometry" />
        </mxCell>
        <mxCell id="YTrLdcd_DZCXArlXSMA_-8" value="PR" style="edgeStyle=orthogonalEdgeStyle;shape=connector;rounded=1;orthogonalLoop=1;jettySize=auto;html=1;labelBackgroundColor=default;strokeColor=default;strokeWidth=2;align=center;verticalAlign=bottom;fontFamily=Helvetica;fontSize=14;fontColor=default;endArrow=classic;dashed=1;" edge="1" parent="1" source="YTrLdcd_DZCXArlXSMA_-9" target="YTrLdcd_DZCXArlXSMA_-6">
          <mxGeometry relative="1" as="geometry" />
        </mxCell>
        <mxCell id="YTrLdcd_DZCXArlXSMA_-9" value="&lt;span style=&quot;font-size: 14px;&quot;&gt;&lt;b&gt;feature/magic&lt;/b&gt;&lt;br&gt;&lt;/span&gt;" style="image;aspect=fixed;html=1;points=[];align=center;fontSize=12;image=img/lib/azure2/general/Branch.svg;" vertex="1" parent="1">
          <mxGeometry x="410" y="280" width="80" height="80" as="geometry" />
        </mxCell>
        <mxCell id="YTrLdcd_DZCXArlXSMA_-10" value="branch" style="edgeStyle=orthogonalEdgeStyle;shape=connector;rounded=1;orthogonalLoop=1;jettySize=auto;html=1;labelBackgroundColor=default;strokeColor=default;strokeWidth=2;align=center;verticalAlign=bottom;fontFamily=Helvetica;fontSize=14;fontColor=default;endArrow=diamondThin;endFill=1;" edge="1" parent="1" source="YTrLdcd_DZCXArlXSMA_-5" target="YTrLdcd_DZCXArlXSMA_-9">
          <mxGeometry x="0.5" relative="1" as="geometry">
            <mxPoint x="280" y="250" as="sourcePoint" />
            <mxPoint x="280" y="310" as="targetPoint" />
            <mxPoint as="offset" />
          </mxGeometry>
        </mxCell>
        <mxCell id="YTrLdcd_DZCXArlXSMA_-12" value="&lt;b&gt;local:~/my-repo&lt;/b&gt;" style="verticalLabelPosition=top;html=1;verticalAlign=bottom;align=center;strokeColor=none;fillColor=#00BEF2;shape=mxgraph.azure.git_repository;fontSize=14;labelPosition=center;" vertex="1" parent="1">
          <mxGeometry x="610" y="160" width="80" height="80" as="geometry" />
        </mxCell>
        <mxCell id="YTrLdcd_DZCXArlXSMA_-13" value="branch" style="edgeStyle=orthogonalEdgeStyle;shape=connector;rounded=1;orthogonalLoop=1;jettySize=auto;html=1;labelBackgroundColor=default;strokeColor=default;strokeWidth=2;align=center;verticalAlign=bottom;fontFamily=Helvetica;fontSize=14;fontColor=default;endArrow=diamondThin;endFill=1;" edge="1" parent="1" source="YTrLdcd_DZCXArlXSMA_-12" target="YTrLdcd_DZCXArlXSMA_-15">
          <mxGeometry x="0.5" relative="1" as="geometry">
            <mxPoint x="440" y="250" as="sourcePoint" />
            <mxPoint x="650" y="300" as="targetPoint" />
            <mxPoint as="offset" />
          </mxGeometry>
        </mxCell>
        <mxCell id="YTrLdcd_DZCXArlXSMA_-14" value="git push" style="edgeStyle=orthogonalEdgeStyle;shape=connector;rounded=1;orthogonalLoop=1;jettySize=auto;html=1;labelBackgroundColor=default;strokeColor=default;strokeWidth=2;align=center;verticalAlign=bottom;fontFamily=Helvetica;fontSize=14;fontColor=default;endArrow=classic;" edge="1" parent="1" source="YTrLdcd_DZCXArlXSMA_-15" target="YTrLdcd_DZCXArlXSMA_-9">
          <mxGeometry relative="1" as="geometry" />
        </mxCell>
        <mxCell id="YTrLdcd_DZCXArlXSMA_-15" value="&lt;span style=&quot;font-size: 14px;&quot;&gt;&lt;b&gt;feature/magic&lt;/b&gt;&lt;br&gt;&lt;/span&gt;" style="image;aspect=fixed;html=1;points=[];align=center;fontSize=12;image=img/lib/azure2/general/Branch.svg;" vertex="1" parent="1">
          <mxGeometry x="610" y="280" width="80" height="80" as="geometry" />
        </mxCell>
        <mxCell id="YTrLdcd_DZCXArlXSMA_-16" value="git commit" style="edgeStyle=orthogonalEdgeStyle;shape=connector;rounded=1;orthogonalLoop=1;jettySize=auto;html=1;labelBackgroundColor=default;strokeColor=default;strokeWidth=2;align=center;verticalAlign=bottom;fontFamily=Helvetica;fontSize=14;fontColor=default;endArrow=classic;" edge="1" parent="1" source="YTrLdcd_DZCXArlXSMA_-17" target="YTrLdcd_DZCXArlXSMA_-15">
          <mxGeometry relative="1" as="geometry" />
        </mxCell>
        <mxCell id="YTrLdcd_DZCXArlXSMA_-17" value="development" style="pointerEvents=1;shadow=0;dashed=0;html=1;strokeColor=none;fillColor=#4495D1;labelPosition=center;verticalLabelPosition=bottom;verticalAlign=top;align=center;outlineConnect=0;shape=mxgraph.veeam.laptop;fontFamily=Helvetica;fontSize=14;fontColor=default;" vertex="1" parent="1">
          <mxGeometry x="780" y="295" width="70" height="50" as="geometry" />
        </mxCell>
        <mxCell id="B3iyboj7KR7BWYuc4lUW-2" style="edgeStyle=orthogonalEdgeStyle;shape=connector;orthogonalLoop=1;jettySize=auto;html=1;labelBackgroundColor=default;strokeColor=#7487B3;strokeWidth=2;align=center;verticalAlign=bottom;fontFamily=Helvetica;fontSize=14;fontColor=default;endArrow=classic;curved=1;dashed=1;dashPattern=1 1;" edge="1" parent="1" source="B3iyboj7KR7BWYuc4lUW-1" target="2gMLM6Ryvry-dgWh40Fb-8">
          <mxGeometry relative="1" as="geometry">
            <mxPoint x="720" y="330" as="targetPoint" />
          </mxGeometry>
        </mxCell>
        <mxCell id="2gMLM6Ryvry-dgWh40Fb-33" value="uses" style="edgeStyle=orthogonalEdgeStyle;shape=connector;rounded=1;orthogonalLoop=1;jettySize=auto;html=1;labelBackgroundColor=default;strokeColor=#685073;strokeWidth=2;align=center;verticalAlign=bottom;fontFamily=Helvetica;fontSize=14;fontColor=#685073;endArrow=classic;dashed=1;dashPattern=1 1;" edge="1" parent="1" source="B3iyboj7KR7BWYuc4lUW-1" target="2gMLM6Ryvry-dgWh40Fb-27">
          <mxGeometry relative="1" as="geometry" />
        </mxCell>
        <mxCell id="B3iyboj7KR7BWYuc4lUW-1" value="pre-commit" style="shape=image;verticalLabelPosition=bottom;labelBackgroundColor=default;verticalAlign=top;aspect=fixed;imageAspect=0;image=https://pre-commit.com/logo.svg;" vertex="1" parent="1">
          <mxGeometry x="705" y="390" width="60" height="60" as="geometry" />
        </mxCell>
        <mxCell id="2gMLM6Ryvry-dgWh40Fb-2" value="Static analysis tools" style="swimlane;startSize=0;fontFamily=Helvetica;fontSize=14;fontColor=default;collapsible=0;dashed=1;strokeWidth=2;labelPosition=center;verticalLabelPosition=middle;align=center;verticalAlign=top;" vertex="1" parent="1">
          <mxGeometry x="400" y="440" width="180" height="120" as="geometry" />
        </mxCell>
        <mxCell id="2gMLM6Ryvry-dgWh40Fb-1" value="Codacy" style="shape=image;verticalLabelPosition=bottom;labelBackgroundColor=default;verticalAlign=top;aspect=fixed;imageAspect=0;image=https://gdm-catalog-fmapi-prod.imgix.net/ProductLogo/d481788d-6493-40d4-949f-b574ad46ea8d.png;" vertex="1" parent="2gMLM6Ryvry-dgWh40Fb-2">
          <mxGeometry x="20" y="30" width="60" height="60" as="geometry" />
        </mxCell>
        <mxCell id="2gMLM6Ryvry-dgWh40Fb-17" value="Sonarcloud" style="shape=image;verticalLabelPosition=bottom;labelBackgroundColor=default;verticalAlign=top;aspect=fixed;imageAspect=0;image=https://cdn.worldvectorlogo.com/logos/sonarcloud-1.svg;" vertex="1" parent="2gMLM6Ryvry-dgWh40Fb-2">
          <mxGeometry x="100" y="31.529999999999944" width="60" height="56.95" as="geometry" />
        </mxCell>
        <mxCell id="2gMLM6Ryvry-dgWh40Fb-35" style="edgeStyle=orthogonalEdgeStyle;shape=connector;rounded=1;orthogonalLoop=1;jettySize=auto;html=1;dashed=1;dashPattern=1 1;labelBackgroundColor=default;strokeColor=#685073;strokeWidth=2;align=center;verticalAlign=bottom;fontFamily=Helvetica;fontSize=14;fontColor=#685073;endArrow=classic;" edge="1" parent="1" source="2gMLM6Ryvry-dgWh40Fb-4" target="2gMLM6Ryvry-dgWh40Fb-27">
          <mxGeometry relative="1" as="geometry">
            <Array as="points">
              <mxPoint x="270" y="610" />
              <mxPoint x="800" y="610" />
              <mxPoint x="800" y="470" />
            </Array>
          </mxGeometry>
        </mxCell>
        <mxCell id="2gMLM6Ryvry-dgWh40Fb-37" style="edgeStyle=orthogonalEdgeStyle;shape=connector;rounded=1;orthogonalLoop=1;jettySize=auto;html=1;dashed=1;dashPattern=1 1;labelBackgroundColor=default;strokeColor=#685073;strokeWidth=2;align=center;verticalAlign=bottom;fontFamily=Helvetica;fontSize=14;fontColor=#685073;endArrow=classic;" edge="1" parent="1" source="2gMLM6Ryvry-dgWh40Fb-4" target="2gMLM6Ryvry-dgWh40Fb-31">
          <mxGeometry relative="1" as="geometry">
            <Array as="points">
              <mxPoint x="270" y="610" />
              <mxPoint x="800" y="610" />
              <mxPoint x="800" y="570" />
            </Array>
          </mxGeometry>
        </mxCell>
        <mxCell id="2gMLM6Ryvry-dgWh40Fb-4" value="CI/CD tools" style="swimlane;startSize=0;fontFamily=Helvetica;fontSize=14;fontColor=default;collapsible=0;dashed=1;strokeWidth=2;labelPosition=center;verticalLabelPosition=middle;align=center;verticalAlign=top;" vertex="1" parent="1">
          <mxGeometry x="180" y="440" width="180" height="120" as="geometry" />
        </mxCell>
        <mxCell id="2gMLM6Ryvry-dgWh40Fb-18" value="Jenkins" style="shape=image;verticalLabelPosition=bottom;labelBackgroundColor=default;verticalAlign=top;imageAspect=0;image=https://upload.wikimedia.org/wikipedia/commons/thumb/e/e9/Jenkins_logo.svg/1483px-Jenkins_logo.svg.png;aspect=fixed;" vertex="1" parent="2gMLM6Ryvry-dgWh40Fb-4">
          <mxGeometry x="20" y="28.479999999999972" width="43.45" height="60" as="geometry" />
        </mxCell>
        <mxCell id="2gMLM6Ryvry-dgWh40Fb-21" value="" style="shape=image;verticalLabelPosition=bottom;labelBackgroundColor=default;verticalAlign=top;aspect=fixed;imageAspect=0;image=https://cdn.freebiesupply.com/logos/thumbs/2x/travis-ci-logo.png;clipPath=inset(0% 15.33% 0% 19%);" vertex="1" parent="2gMLM6Ryvry-dgWh40Fb-4">
          <mxGeometry x="90" y="28.479999999999972" width="70.05" height="80" as="geometry" />
        </mxCell>
        <mxCell id="2gMLM6Ryvry-dgWh40Fb-8" value="" style="rounded=0;whiteSpace=wrap;html=1;fontFamily=Helvetica;fontSize=14;fontColor=default;fillColor=none;strokeColor=none;" vertex="1" parent="1">
          <mxGeometry x="720" y="320" width="30" height="20" as="geometry" />
        </mxCell>
        <mxCell id="2gMLM6Ryvry-dgWh40Fb-9" value="" style="rounded=0;whiteSpace=wrap;html=1;fontFamily=Helvetica;fontSize=14;fontColor=default;fillColor=none;strokeColor=none;" vertex="1" parent="1">
          <mxGeometry x="540" y="320" width="30" height="20" as="geometry" />
        </mxCell>
        <mxCell id="2gMLM6Ryvry-dgWh40Fb-10" value="" style="rounded=0;whiteSpace=wrap;html=1;fontFamily=Helvetica;fontSize=14;fontColor=default;fillColor=none;strokeColor=none;" vertex="1" parent="1">
          <mxGeometry x="340" y="320" width="30" height="20" as="geometry" />
        </mxCell>
        <mxCell id="2gMLM6Ryvry-dgWh40Fb-11" style="edgeStyle=orthogonalEdgeStyle;shape=connector;orthogonalLoop=1;jettySize=auto;html=1;labelBackgroundColor=default;strokeColor=#7487B3;strokeWidth=2;align=center;verticalAlign=bottom;fontFamily=Helvetica;fontSize=14;fontColor=default;endArrow=classic;curved=1;dashed=1;dashPattern=1 1;" edge="1" parent="1" source="2gMLM6Ryvry-dgWh40Fb-2" target="2gMLM6Ryvry-dgWh40Fb-9">
          <mxGeometry relative="1" as="geometry">
            <mxPoint x="745" y="350" as="targetPoint" />
            <mxPoint x="760" y="410" as="sourcePoint" />
            <Array as="points">
              <mxPoint x="500" y="410" />
              <mxPoint x="540" y="410" />
            </Array>
          </mxGeometry>
        </mxCell>
        <mxCell id="2gMLM6Ryvry-dgWh40Fb-12" style="edgeStyle=orthogonalEdgeStyle;shape=connector;orthogonalLoop=1;jettySize=auto;html=1;labelBackgroundColor=default;strokeColor=#7487B3;strokeWidth=2;align=center;verticalAlign=bottom;fontFamily=Helvetica;fontSize=14;fontColor=default;endArrow=classic;curved=1;dashed=1;dashPattern=1 1;noJump=0;shadow=0;" edge="1" parent="1" source="2gMLM6Ryvry-dgWh40Fb-2" target="2gMLM6Ryvry-dgWh40Fb-10">
          <mxGeometry relative="1" as="geometry">
            <mxPoint x="565" y="350" as="targetPoint" />
            <mxPoint x="540" y="450" as="sourcePoint" />
            <Array as="points">
              <mxPoint x="500" y="410" />
              <mxPoint x="360" y="410" />
            </Array>
          </mxGeometry>
        </mxCell>
        <mxCell id="2gMLM6Ryvry-dgWh40Fb-14" style="edgeStyle=orthogonalEdgeStyle;shape=connector;orthogonalLoop=1;jettySize=auto;html=1;labelBackgroundColor=default;strokeColor=#7487B3;strokeWidth=2;align=center;verticalAlign=bottom;fontFamily=Helvetica;fontSize=14;fontColor=default;endArrow=classic;curved=1;dashed=1;dashPattern=1 1;" edge="1" parent="1" source="2gMLM6Ryvry-dgWh40Fb-4" target="2gMLM6Ryvry-dgWh40Fb-10">
          <mxGeometry relative="1" as="geometry">
            <mxPoint x="380" y="360" as="targetPoint" />
            <mxPoint x="440" y="490" as="sourcePoint" />
            <Array as="points">
              <mxPoint x="260" y="395" />
              <mxPoint x="340" y="395" />
            </Array>
          </mxGeometry>
        </mxCell>
        <mxCell id="2gMLM6Ryvry-dgWh40Fb-15" style="edgeStyle=orthogonalEdgeStyle;shape=connector;orthogonalLoop=1;jettySize=auto;html=1;labelBackgroundColor=default;strokeColor=#7487B3;strokeWidth=2;align=center;verticalAlign=bottom;fontFamily=Helvetica;fontSize=14;fontColor=default;endArrow=classic;curved=1;dashed=1;dashPattern=1 1;" edge="1" parent="1" source="2gMLM6Ryvry-dgWh40Fb-4" target="2gMLM6Ryvry-dgWh40Fb-9">
          <mxGeometry relative="1" as="geometry">
            <mxPoint x="565" y="350" as="targetPoint" />
            <mxPoint x="565" y="450" as="sourcePoint" />
            <Array as="points">
              <mxPoint x="290" y="590" />
              <mxPoint x="620" y="590" />
              <mxPoint x="620" y="410" />
              <mxPoint x="555" y="410" />
            </Array>
          </mxGeometry>
        </mxCell>
        <mxCell id="2gMLM6Ryvry-dgWh40Fb-27" value="Linters" style="swimlane;startSize=0;fontFamily=Helvetica;fontSize=14;fontColor=default;collapsible=0;dashed=1;strokeWidth=2;labelPosition=center;verticalLabelPosition=middle;align=center;verticalAlign=top;" vertex="1" parent="1">
          <mxGeometry x="840" y="400" width="190" height="100" as="geometry" />
        </mxCell>
        <mxCell id="2gMLM6Ryvry-dgWh40Fb-30" value="- Python: pylint, flake8&lt;br&gt;- C++: cpplint&lt;br&gt;- ..." style="text;html=1;strokeColor=none;fillColor=none;align=left;verticalAlign=top;whiteSpace=wrap;rounded=0;fontSize=14;fontFamily=Helvetica;fontColor=default;" vertex="1" parent="2gMLM6Ryvry-dgWh40Fb-27">
          <mxGeometry x="10" y="30" width="170" height="60" as="geometry" />
        </mxCell>
        <mxCell id="2gMLM6Ryvry-dgWh40Fb-31" value="Test frameworks" style="swimlane;startSize=0;fontFamily=Helvetica;fontSize=14;fontColor=default;collapsible=0;dashed=1;strokeWidth=2;labelPosition=center;verticalLabelPosition=middle;align=center;verticalAlign=top;" vertex="1" parent="1">
          <mxGeometry x="840" y="520" width="190" height="100" as="geometry" />
        </mxCell>
        <mxCell id="2gMLM6Ryvry-dgWh40Fb-32" value="- Python: behave, pytest&lt;br&gt;- C++: Catch, Google Test&lt;br&gt;- ..." style="text;html=1;strokeColor=none;fillColor=none;align=left;verticalAlign=top;whiteSpace=wrap;rounded=0;fontSize=14;fontFamily=Helvetica;fontColor=default;" vertex="1" parent="2gMLM6Ryvry-dgWh40Fb-31">
          <mxGeometry x="10" y="30" width="170" height="60" as="geometry" />
        </mxCell>
        <mxCell id="2gMLM6Ryvry-dgWh40Fb-34" style="edgeStyle=orthogonalEdgeStyle;shape=connector;rounded=1;orthogonalLoop=1;jettySize=auto;html=1;dashed=1;dashPattern=1 1;labelBackgroundColor=default;strokeColor=#685073;strokeWidth=2;align=center;verticalAlign=bottom;fontFamily=Helvetica;fontSize=14;fontColor=#685073;endArrow=classic;jumpStyle=gap;" edge="1" parent="1" source="2gMLM6Ryvry-dgWh40Fb-2" target="2gMLM6Ryvry-dgWh40Fb-27">
          <mxGeometry relative="1" as="geometry">
            <Array as="points">
              <mxPoint x="780" y="500" />
              <mxPoint x="780" y="450" />
            </Array>
          </mxGeometry>
        </mxCell>
      </root>
    </mxGraphModel>
  </diagram>
</mxfile>
